# xmcd
# 
# Track frame offsets:
#     150
#     10061
#     20093
#     28376
#     55624
#     63003
#     88707
# 
# Disc length: 1267
# 
# Revision: 0
# Processed by: cddbd v1.5.2PL0 Copyright (c) Steve Scherf et al.
# Submitted via: fre:ac v1.0.17
# 
DISCID=4f04f107
DTITLE=Kai - Wonderland Wars Extra Soundtrack -Moonlight Waltz-
DYEAR=2016
DGENRE=Game
TTITLE0=The Invitations
TTITLE1=Moonlight Waltz
TTITLE2=Marshalling Brave Dancers
TTITLE3=Dancing In The Battle Arena
TTITLE4=Stairway To The Crown
TTITLE5=The Villain Battle
TTITLE6=Wonderskill Jingles Vol.2
EXTD=
EXTT0=
EXTT1=
EXTT2=
EXTT3=
EXTT4=
EXTT5=
EXTT6=
PLAYORDER=
